<?xml version="1.0" standalone="no"?>
<!DOCTYPE svg PUBLIC "-//W3C//DTD SVG 20010904//EN"
 "http://www.w3.org/TR/2001/REC-SVG-20010904/DTD/svg10.dtd">
<svg version="1.0" xmlns="http://www.w3.org/2000/svg"
 width="362.000000pt" height="416.000000pt" viewBox="0 0 362.000000 416.000000"
 preserveAspectRatio="xMidYMid meet">

<g transform="translate(0.000000,416.000000) scale(0.100000,-0.100000)"
fill="#000000" stroke="none">
<path d="M591 3193 c18 -32 143 -249 278 -483 134 -234 300 -522 367 -640 68
-118 129 -223 136 -233 12 -15 20 -5 75 91 34 60 100 174 146 254 l85 146 -28
48 c-15 27 -77 135 -137 239 -61 105 -143 247 -184 318 l-74 128 -50 14 c-269
75 -632 175 -639 175 -4 0 7 -26 25 -57z"/>
<path d="M3040 3235 c-25 -8 -157 -43 -295 -80 -476 -127 -550 -148 -567 -164
-13 -13 -141 -231 -135 -231 1 0 47 14 102 30 55 16 103 30 108 30 16 0 3 -29
-84 -178 -100 -173 -160 -277 -299 -517 -233 -403 -320 -556 -320 -563 0 -10
265 -491 277 -503 5 -5 33 33 65 89 31 53 89 153 129 222 39 69 81 140 91 158
10 18 53 93 95 165 42 73 127 220 188 327 61 107 152 265 202 350 49 85 145
252 213 370 68 118 161 279 207 357 45 78 83 144 83 147 0 8 -5 7 -60 -9z"/>
</g>
</svg>
